<svg xmlns="http://www.w3.org/2000/svg" viewBox="0 0 640 640">
  <defs>
    <linearGradient id="bg" x1="0" x2="1" y1="0" y2="1">
      <stop offset="0%" stop-color="#09111F"/>
      <stop offset="100%" stop-color="#173252"/>
    </linearGradient>
  </defs>
  <rect width="640" height="640" rx="56" fill="url(#bg)"/>
  <circle cx="320" cy="228" r="110" fill="#F0C8A8"/>
  <path d="M222 248c12-74 56-124 98-124s86 50 98 124c-28-18-63-32-98-32s-70 14-98 32Z" fill="#334155"/>
  <path d="M247 250c12 76 40 118 73 118s61-42 73-118" fill="none" stroke="#D7A27A" stroke-width="18" stroke-linecap="round"/>
  <path d="M244 400c20-18 48-28 76-28s56 10 76 28" fill="none" stroke="#C9A84C" stroke-width="20" stroke-linecap="round"/>
  <rect x="116" y="500" width="408" height="44" rx="22" fill="#C9A84C" opacity="0.9"/>
  <text x="320" y="528" text-anchor="middle" font-family="Arial, sans-serif" font-size="26" fill="#09111F" font-weight="700">Elias Brooks</text>
</svg>
